<svg xmlns="http://www.w3.org/2000/svg" xmlns:xlink="http://www.w3.org/1999/xlink">
    <symbol id="darkmode" fill-rule="evenodd" clip-rule="evenodd" stroke-linejoin="round" stroke-miterlimit="1.414=">
        <g id="SVGRepo_iconCarrier">
            <path d="M 18.44 34.68 a 18.22 18.22 0 0 1 -2.94 -0.24 a 18.18 18.18 0 0 1 -15 -20.86 A 18.06 18.06 0 0 1 9.59 0.63 A 2.42 2.42 0 0 1 12.2 0.79 a 2.39 2.39 0 0 1 1 2.41 A 15.66 15.66 0 0 0 23.34 21 h 0 a 15.82 15.82 0 0 0 8.47 0.53 A 2.44 2.44 0 0 1 34.47 25 A 18.18 18.18 0 0 1 18.44 34.68 Z M 10.67 2.89 a 15.67 15.67 0 0 0 -5 22.77 A 15.66 15.66 0 0 0 32.18 24 a 18.49 18.49 0 0 1 -9.65 -0.64 A 18.18 18.18 0 0 1 10.67 2.89 Z"></path>
        </g>
    </symbol>
</svg>