<svg xmlns="http://www.w3.org/2000/svg" xmlns:xlink="http://www.w3.org/1999/xlink">
    <symbol id="dark-mode" fill-rule="evenodd" clip-rule="evenodd" stroke-linejoin="round" stroke-miterlimit="1.414=">
        <g id="SVGRepo_iconCarrier">
            <path d="M 18.44 34.68 a 18.22 18.22 0 0 1 -2.94 -0.24 a 18.18 18.18 0 0 1 -15 -20.86 A 18.06 18.06 0 0 1 9.59 0.63 A 2.42 2.42 0 0 1 12.2 0.79 a 2.39 2.39 0 0 1 1 2.41 A 15.66 15.66 0 0 0 23.34 21 h 0 a 15.82 15.82 0 0 0 8.47 0.53 A 2.44 2.44 0 0 1 34.47 25 A 18.18 18.18 0 0 1 18.44 34.68 Z M 10.67 2.89 a 15.67 15.67 0 0 0 -5 22.77 A 15.66 15.66 0 0 0 32.18 24 a 18.49 18.49 0 0 1 -9.65 -0.64 A 18.18 18.18 0 0 1 10.67 2.89 Z"></path>
        </g>
    </symbol>

  <symbol id="light-mode" fill-rule="evenodd" clip-rule="evenodd" stroke-linejoin="round" stroke-miterlimit="1.414=">
    <g id="SVGRepo_iconCarrier">
      <path d="M 16.3152 0 a 1.3596 1.3596 90 0 1 1.3596 1.3596 v 5.4384 a 1.3596 1.3596 90 1 1 -2.7192 0 V 1.3596 a 1.3596 1.3596 90 0 1 1.3596 -1.3596 Z M 6.7015 4.779 a 1.3596 1.3596 90 0 0 -1.9225 1.9225 l 3.8449 3.8449 a 1.3596 1.3596 90 0 0 1.9225 -1.9225 L 6.7028 4.779 Z M 1.3596 14.9556 a 1.3596 1.3596 90 1 0 0 2.7192 h 5.4384 a 1.3596 1.3596 90 1 0 0 -2.7192 H 1.3596 Z M 24.4728 16.3152 a 1.3596 1.3596 90 0 1 1.3596 -1.3596 h 5.4384 a 1.3596 1.3596 90 1 1 0 2.7192 h -5.4384 a 1.3596 1.3596 90 0 1 -1.3596 -1.3596 Z M 24.0065 22.084 a 1.3596 1.3596 90 0 0 -1.9225 1.9225 l 3.8449 3.8449 a 1.3596 1.3596 90 1 0 1.9225 -1.9225 l -3.8449 -3.8449 Z M 10.5464 24.0065 a 1.3596 1.3596 90 1 0 -1.9225 -1.9225 L 4.779 25.9276 a 1.3596 1.3596 90 1 0 1.9225 1.9225 l 3.8449 -3.8449 Z M 27.8514 6.7015 a 1.3596 1.3596 90 0 0 -1.9225 -1.9225 l -3.8449 3.8449 a 1.3596 1.3596 90 1 0 1.9225 1.9225 l 3.8449 -3.8449 Z M 17.6748 25.8324 a 1.3596 1.3596 90 1 0 -2.7192 0 v 5.4384 a 1.3596 1.3596 90 1 0 2.7192 0 v -5.4384 Z M 16.3152 9.5172 a 6.798 6.798 90 1 0 0 13.596 a 6.798 6.798 90 0 0 0 -13.596 Z"></path>
    </g>
  </symbol>
</svg>